<svg width="315" height="315" viewBox="0 0 315 315" fill="none" xmlns="http://www.w3.org/2000/svg">
<g clip-path="url(#clip0)">
<path d="M263.69 290.627L24.7361 264.143C13.2472 262.87 4.96641 252.524 6.23938 241.036L28.2023 42.8691C29.4759 31.3802 39.8215 23.0988 51.3097 24.3724L290.263 50.8559C301.752 52.1295 310.033 62.4751 308.76 73.9633L286.797 272.13C285.524 283.619 275.178 291.9 263.69 290.627Z" fill="url(#paint0_linear)"/>
<path d="M308.76 73.9645L300.1 152.118L280.853 49.8145L290.267 50.857C301.752 52.1282 310.032 62.4725 308.76 73.9645Z" fill="url(#paint1_linear)"/>
<path d="M297.936 253.815L61.664 298.264C50.3042 300.401 39.3626 292.924 37.2255 281.564L0.364334 85.6215C-1.77272 74.2617 5.70389 63.3201 17.0637 61.183L253.336 16.7347C264.696 14.5976 275.637 22.0743 277.774 33.434L314.636 229.377C316.773 240.737 309.296 251.679 297.936 253.815Z" fill="url(#paint2_linear)"/>
<path d="M282.818 60.249V256.66L297.936 253.816C309.295 251.679 316.772 240.737 314.635 229.377L282.818 60.249Z" fill="url(#paint3_linear)"/>
<path d="M36.1014 275.586L37.2262 281.565C39.3632 292.925 50.3049 300.401 61.6646 298.264L182.214 275.586H36.1014Z" fill="url(#paint4_linear)"/>
<path d="M261.888 276.808H21.4724C9.91317 276.808 0.542847 267.437 0.542847 255.878V56.4979C0.542847 44.9387 9.91317 35.5684 21.4724 35.5684H261.888C273.448 35.5684 282.818 44.9387 282.818 56.4979V255.878C282.818 267.437 273.448 276.808 261.888 276.808Z" fill="url(#paint5_linear)"/>
<path d="M242.29 257.142H41.0717C31.3974 257.142 23.5546 249.299 23.5546 239.625V72.7524C23.5546 63.0782 31.3974 55.2354 41.0717 55.2354H242.29C251.964 55.2354 259.807 63.0782 259.807 72.7524V239.625C259.807 249.299 251.964 257.142 242.29 257.142Z" fill="url(#paint6_linear)"/>
<path d="M155.69 257.142H41.0746C31.3986 257.142 23.552 249.301 23.552 239.626V212.27L52.6321 176.924C62.2291 165.248 80.0927 165.248 89.6964 176.924L107.803 198.936L155.69 257.142Z" fill="url(#paint7_linear)"/>
<path d="M259.809 195.639V239.626C259.809 249.302 251.962 257.142 242.286 257.142H59.9148L107.802 198.936L166.631 127.423C176.228 115.755 194.098 115.755 203.695 127.423L259.809 195.639Z" fill="url(#paint8_linear)"/>
<path d="M84.7566 122.379C98.4759 122.379 109.598 111.257 109.598 97.5374C109.598 83.8181 98.4759 72.6963 84.7566 72.6963C71.0372 72.6963 59.9154 83.8181 59.9154 97.5374C59.9154 111.257 71.0372 122.379 84.7566 122.379Z" fill="url(#paint9_linear)"/>
</g>
<defs>
<linearGradient id="paint0_linear" x1="80.4873" y1="61.2527" x2="258.138" y2="283.115" gradientUnits="userSpaceOnUse">
<stop stop-color="#FFA936"/>
<stop offset="0.4112" stop-color="#FF8548"/>
<stop offset="0.7781" stop-color="#FF6C54"/>
<stop offset="1" stop-color="#FF6359"/>
</linearGradient>
<linearGradient id="paint1_linear" x1="302.948" y1="98.2151" x2="288.089" y2="101.493" gradientUnits="userSpaceOnUse">
<stop stop-color="#F82814" stop-opacity="0"/>
<stop offset="1" stop-color="#C0272D"/>
</linearGradient>
<linearGradient id="paint2_linear" x1="55.733" y1="87.9666" x2="290.457" y2="248.335" gradientUnits="userSpaceOnUse">
<stop stop-color="#CDEC7A"/>
<stop offset="0.2157" stop-color="#B0E995"/>
<stop offset="0.5613" stop-color="#87E4BB"/>
<stop offset="0.8347" stop-color="#6EE1D2"/>
<stop offset="1" stop-color="#65E0DB"/>
</linearGradient>
<linearGradient id="paint3_linear" x1="303.686" y1="158.455" x2="278.335" y2="158.455" gradientUnits="userSpaceOnUse">
<stop stop-color="#CDEC7A" stop-opacity="0"/>
<stop offset="0.2354" stop-color="#9AD57D" stop-opacity="0.235"/>
<stop offset="0.6035" stop-color="#51B482" stop-opacity="0.604"/>
<stop offset="0.8679" stop-color="#239F85" stop-opacity="0.868"/>
<stop offset="1" stop-color="#119786"/>
</linearGradient>
<linearGradient id="paint4_linear" x1="109.157" y1="288.39" x2="109.157" y2="273.371" gradientUnits="userSpaceOnUse">
<stop stop-color="#CDEC7A" stop-opacity="0"/>
<stop offset="0.2354" stop-color="#9AD57D" stop-opacity="0.235"/>
<stop offset="0.6035" stop-color="#51B482" stop-opacity="0.604"/>
<stop offset="0.8679" stop-color="#239F85" stop-opacity="0.868"/>
<stop offset="1" stop-color="#119786"/>
</linearGradient>
<linearGradient id="paint5_linear" x1="54.5159" y1="69.0232" x2="255.479" y2="269.986" gradientUnits="userSpaceOnUse">
<stop stop-color="#F8F6FB"/>
<stop offset="1" stop-color="#EFDCFB"/>
</linearGradient>
<linearGradient id="paint6_linear" x1="69.6508" y1="62.4779" x2="265.657" y2="317.483" gradientUnits="userSpaceOnUse">
<stop stop-color="#18CEFB"/>
<stop offset="0.2969" stop-color="#2BB9F9"/>
<stop offset="0.7345" stop-color="#42A0F7"/>
<stop offset="1" stop-color="#4A97F6"/>
</linearGradient>
<linearGradient id="paint7_linear" x1="46.6866" y1="195.503" x2="132.557" y2="307.22" gradientUnits="userSpaceOnUse">
<stop stop-color="#CDEC7A"/>
<stop offset="0.2154" stop-color="#B0E995" stop-opacity="0.784"/>
<stop offset="0.5604" stop-color="#87E4BB" stop-opacity="0.439"/>
<stop offset="0.8334" stop-color="#6EE1D2" stop-opacity="0.165"/>
<stop offset="0.9985" stop-color="#65E0DB" stop-opacity="0"/>
</linearGradient>
<linearGradient id="paint8_linear" x1="122.802" y1="178.174" x2="226.367" y2="312.913" gradientUnits="userSpaceOnUse">
<stop stop-color="#CDEC7A"/>
<stop offset="0.2157" stop-color="#B0E995"/>
<stop offset="0.5613" stop-color="#87E4BB"/>
<stop offset="0.8347" stop-color="#6EE1D2"/>
<stop offset="1" stop-color="#65E0DB"/>
</linearGradient>
<linearGradient id="paint9_linear" x1="72.4141" y1="81.4805" x2="105.999" y2="125.175" gradientUnits="userSpaceOnUse">
<stop stop-color="#FFD945"/>
<stop offset="0.3043" stop-color="#FFCD3E"/>
<stop offset="0.8558" stop-color="#FFAD2B"/>
<stop offset="1" stop-color="#FFA325"/>
</linearGradient>
<clipPath id="clip0">
<rect width="315" height="315" fill="white"/>
</clipPath>
</defs>
</svg>
