<svg width="98" height="98" viewBox="0 0 98 98" fill="none" xmlns="http://www.w3.org/2000/svg">
<path d="M34.4165 76.8319L19.796 84.8069C18.938 85.2747 18.167 85.8497 17.4496 86.4766C25.9737 93.6639 36.9774 97.9999 49 97.9999C60.9338 97.9999 71.8673 93.7286 80.3674 86.6393C79.5834 85.9773 78.7328 85.3819 77.7898 84.9123L62.1339 77.0852C60.111 76.0738 58.8333 74.0065 58.8333 71.7451V65.6026C59.2734 65.1015 59.7763 64.458 60.3144 63.698C62.4482 60.6841 64.0624 57.3687 65.1811 53.8906C67.1892 53.2712 68.6684 51.4166 68.6684 49.2125V42.6558C68.6684 41.2135 68.0268 39.9247 67.0302 39.0224V29.5441C67.0302 29.5441 68.9772 14.7942 49.0019 14.7942C29.0265 14.7942 30.9736 29.5441 30.9736 29.5441V39.0224C29.9751 39.9247 29.3353 41.2135 29.3353 42.6558V49.2125C29.3353 50.9395 30.2432 52.4595 31.6022 53.3378C33.2405 60.4696 37.5303 65.6026 37.5303 65.6026V71.5935C37.5285 73.7754 36.334 75.7853 34.4165 76.8319Z" fill="#E7ECED"/>
<path d="M49.8376 0.00729668C22.7803 -0.454967 0.469627 21.105 0.00736254 48.1623C-0.255204 63.5039 6.58261 77.2923 17.4699 86.4618C18.1817 85.8405 18.9454 85.271 19.7941 84.8087L34.4146 76.8338C36.3321 75.7872 37.5266 73.7773 37.5266 71.5917V65.6007C37.5266 65.6007 33.2349 60.4678 31.5985 53.3359C30.2413 52.4576 29.3316 50.9396 29.3316 49.2107V42.6539C29.3316 41.2117 29.9732 39.9229 30.9698 39.0205V29.5423C30.9698 29.5423 29.0228 14.7924 48.9981 14.7924C68.9735 14.7924 67.0264 29.5423 67.0264 29.5423V39.0205C68.0249 39.9229 68.6647 41.2117 68.6647 42.6539V49.2107C68.6647 51.4148 67.1854 53.2694 65.1774 53.8888C64.0587 57.3669 62.4445 60.6822 60.3106 63.6962C59.7726 64.4562 59.2696 65.0996 58.8296 65.6007V71.7433C58.8296 74.0047 60.1073 76.0738 62.1301 77.0834L77.7861 84.9104C78.7254 85.3801 79.5741 85.9736 80.3563 86.6338C90.9144 77.8285 97.7355 64.6633 97.9889 49.8375C98.4548 22.7803 76.8967 0.469561 49.8376 0.00729668Z" fill="#1DC5DE"/>
</svg>
