<svg width="178" height="178" viewBox="0 0 178 178" fill="none" xmlns="http://www.w3.org/2000/svg">
<g filter="url(#filter0_d_371_33)">
<path d="M137.989 35.8315C124.879 23.1587 107.629 16 89.2579 16C36.531 16 3.42295 73.1255 29.7519 118.567L20 153.998L56.4258 144.499C72.2956 153.073 85.2962 152.314 89.2924 152.82C150.431 152.82 180.866 78.8525 137.902 36.0558L137.989 35.8315Z" fill="#ECEFF1"/>
<path d="M89.3844 141.067L89.3499 141.061H89.2579C70.9616 141.061 59.272 132.396 58.122 131.896L36.5598 137.502L42.3384 116.543L40.9642 114.387C35.2718 105.325 32.2473 94.8892 32.2473 84.1425C32.2473 33.5834 94.0303 8.30098 129.783 44.0368C165.45 79.3989 140.409 141.067 89.3844 141.067Z" fill="#4CAF50"/>
<path d="M120.664 98.264L120.612 98.6952C118.882 97.8327 110.452 93.71 108.882 93.1408C105.358 91.8355 106.352 92.9338 99.5848 100.685C98.5785 101.806 97.578 101.892 95.8703 101.116C94.1453 100.253 88.6081 98.4422 82.0532 92.5773C76.9473 88.0061 73.5203 82.3999 72.5083 80.6749C70.8236 77.7655 74.3483 77.3515 77.5568 71.2795C78.1318 70.0721 77.8385 69.1233 77.413 68.2666C76.9818 67.4041 73.5491 58.9517 72.1116 55.5822C70.7316 52.2243 69.3114 52.6498 68.2476 52.6498C64.9357 52.3623 62.515 52.4083 60.3817 54.6277C51.1014 64.8281 53.4416 75.3505 61.3822 86.5398C76.9875 106.964 85.3019 110.724 100.505 115.945C104.61 117.25 108.353 117.066 111.315 116.641C114.615 116.117 121.475 112.495 122.906 108.441C124.373 104.388 124.373 101.024 123.941 100.248C123.516 99.4714 122.389 99.0402 120.664 98.264Z" fill="#FAFAFA"/>
</g>
<defs>
<filter id="filter0_d_371_33" x="0" y="0" width="178" height="177.998" filterUnits="userSpaceOnUse" color-interpolation-filters="sRGB">
<feFlood flood-opacity="0" result="BackgroundImageFix"/>
<feColorMatrix in="SourceAlpha" type="matrix" values="0 0 0 0 0 0 0 0 0 0 0 0 0 0 0 0 0 0 127 0" result="hardAlpha"/>
<feOffset dy="4"/>
<feGaussianBlur stdDeviation="10"/>
<feColorMatrix type="matrix" values="0 0 0 0 0 0 0 0 0 0 0 0 0 0 0 0 0 0 0.25 0"/>
<feBlend mode="normal" in2="BackgroundImageFix" result="effect1_dropShadow_371_33"/>
<feBlend mode="normal" in="SourceGraphic" in2="effect1_dropShadow_371_33" result="shape"/>
</filter>
</defs>
</svg>
