<svg width="94" height="94" viewBox="0 0 94 94" fill="none" xmlns="http://www.w3.org/2000/svg">
<path d="M5.7375 91.2459H22.2633V77.5552L14.0202 72.0474L5.7375 77.5552V91.2459Z" fill="#FF668E"/>
<path d="M27.6758 91.246H44.2017V55.4902L35.9387 49.9824L27.6758 55.4902V91.246Z" fill="#00DC7B"/>
<path d="M49.706 91.246H66.232V66.0439L57.9886 60.5361L49.706 66.0439V91.246Z" fill="#E04496"/>
<path d="M71.7362 54.0371V91.2459H88.2622V54.0371L80.0188 48.5293L71.7362 54.0371Z" fill="#00AA8E"/>
<path d="M94.001 0V16.5124H88.4902V9.40551L59.2166 38.6795L47.3445 26.8065L38.1929 17.6544L3.91925 51.9295L0.0211868 48.0373L38.1929 9.86266L47.3445 19.0148L59.2166 30.8878L84.5959 5.50781H77.5145V0H94.001Z" fill="#2AD7F5"/>
<path d="M5.7768 61.0317H22.2633V77.5552H5.7768V61.0317Z" fill="#EAF4F4"/>
<path d="M27.6758 38.9668H44.2018V55.4902H27.6758V38.9668Z" fill="#EAF4F4"/>
<path d="M49.7453 49.5205H66.2318V66.0439H49.7453V49.5205Z" fill="#CAE8EA"/>
<path d="M71.7068 37.5137H88.331V54.0371H71.7068V37.5137Z" fill="#CAE8EA"/>
<path d="M0 88.4922H94V94H0V88.4922Z" fill="#EAF4F4"/>
<path d="M94 0V16.5124H88.4893V9.40551L59.2156 38.6795L47.3435 26.8065V19.0148L59.2156 30.8878L84.5949 5.50781H77.5135V0H94Z" fill="#3BA9FF"/>
<path d="M47 88.4922H94V94H47V88.4922Z" fill="#CAE8EA"/>
</svg>
