<svg width="140" height="110" viewBox="0 0 140 110" fill="none" xmlns="http://www.w3.org/2000/svg">
<path d="M45.2312 53.6971V69.2644C45.2312 69.2644 31.907 86.1312 7.48191 86.2588C6.32295 86.2631 5.14204 86.2302 3.93691 86.1575L3.36965 84.341C1.15524 77.2293 0.0337532 69.8712 0.000628173 62.5131C-0.0345671 54.326 1.27822 46.1367 3.93691 38.2859C5.13976 38.2134 6.31839 38.1782 7.47301 38.1782C31.9025 38.1782 45.2312 53.6971 45.2312 53.6971Z" fill="#FF8496"/>
<path d="M105.998 62.5128C105.936 70.5262 104.516 78.3197 102.057 86.1572C100.852 86.2297 99.6713 86.2628 98.5169 86.2585C74.094 86.133 60.7633 69.2641 60.7633 69.2641V53.6968C60.7633 53.6968 75.3826 36.6782 102.057 38.2858C104.841 46.7368 106.057 54.7303 105.998 62.5128Z" fill="#FF637B"/>
<path d="M52.9977 69.2642L42.8412 107.797C42.4397 109.32 40.8317 110.183 39.3407 109.676L25.9257 105.118C24.2477 104.548 23.5562 102.549 24.5235 101.064L45.2311 69.2642H52.9977Z" fill="#FF8496"/>
<path d="M80.0687 105.118L66.6543 109.676C65.1633 110.182 63.5559 109.32 63.1534 107.796L52.9981 69.2642H60.7631L81.4716 101.065C82.4392 102.549 81.7467 104.548 80.0687 105.118Z" fill="#FF637B"/>
<path d="M45.2312 65.5177H18.819C16.9973 65.5177 15.5203 64.0409 15.5203 62.219C15.5203 60.3974 16.9971 58.9204 18.819 58.9204H45.2312C47.0528 58.9204 48.5298 60.3972 48.5298 62.219C48.5298 64.0407 47.0531 65.5177 45.2312 65.5177Z" fill="#FF3F5C"/>
<path d="M87.1763 65.5177H60.7641C58.9424 65.5177 57.4655 64.0409 57.4655 62.219C57.4655 60.3974 58.9422 58.9204 60.7641 58.9204H87.1763C88.998 58.9204 90.4749 60.3972 90.4749 62.219C90.4749 64.0407 88.998 65.5177 87.1763 65.5177Z" fill="#FF193D"/>
<path d="M62.7622 55.5507V67.4103C62.7622 69.539 61.0359 71.2652 58.905 71.2652H47.0893C44.9606 71.2652 43.2321 69.539 43.2321 67.4103V55.5507C43.2321 53.422 44.9606 51.6958 47.0893 51.6958H58.905C61.0357 51.6958 62.7622 53.422 62.7622 55.5507Z" fill="#FF637B"/>
<path d="M62.7622 55.5507V67.4103C62.7622 69.539 61.0359 71.2652 58.905 71.2652H52.9984V51.6958H58.905C61.0357 51.6958 62.7622 53.422 62.7622 55.5507Z" fill="#FF3F5C"/>
<g filter="url(#filter0_d)">
<path d="M98.5 16C86.6444 16 77 25.6444 77 37.5C77 49.3556 86.6444 59 98.5 59C110.356 59 120 49.3556 120 37.5C120 25.6444 110.356 16 98.5 16Z" fill="#00EB34"/>
<path d="M107.906 39.2916H100.292V46.9063C100.292 47.8954 99.4891 48.6979 98.5 48.6979C97.5109 48.6979 96.7084 47.8954 96.7084 46.9063V39.2916H89.0937C88.1046 39.2916 87.3022 38.4892 87.3022 37.5001C87.3022 36.5109 88.1046 35.7085 89.0937 35.7085H96.7084V28.0938C96.7084 27.1047 97.5109 26.3022 98.5 26.3022C99.4891 26.3022 100.292 27.1047 100.292 28.0938V35.7085H107.906C108.895 35.7085 109.698 36.5109 109.698 37.5001C109.698 38.4892 108.895 39.2916 107.906 39.2916Z" fill="#FAFAFA"/>
</g>
<defs>
<filter id="filter0_d" x="57" y="0" width="83" height="83" filterUnits="userSpaceOnUse" color-interpolation-filters="sRGB">
<feFlood flood-opacity="0" result="BackgroundImageFix"/>
<feColorMatrix in="SourceAlpha" type="matrix" values="0 0 0 0 0 0 0 0 0 0 0 0 0 0 0 0 0 0 127 0"/>
<feOffset dy="4"/>
<feGaussianBlur stdDeviation="10"/>
<feColorMatrix type="matrix" values="0 0 0 0 0 0 0 0 0 0 0 0 0 0 0 0 0 0 0.25 0"/>
<feBlend mode="normal" in2="BackgroundImageFix" result="effect1_dropShadow"/>
<feBlend mode="normal" in="SourceGraphic" in2="effect1_dropShadow" result="shape"/>
</filter>
</defs>
</svg>

