<svg width="88" height="106" viewBox="0 0 88 106" fill="none" xmlns="http://www.w3.org/2000/svg">
<path d="M78.132 62.0591H9.86798V53.9595L44 49.6475L78.132 53.9595V62.0591Z" fill="#E2CD82"/>
<path d="M78.132 62.0591H44V49.6475L78.132 49.8223V62.0591Z" fill="#DFAF07"/>
<path d="M9.86798 70.0075V99.7942L44 106L78.132 99.7942V70.0075L44 62.0591L9.86798 70.0075Z" fill="#E2CD82"/>
<path d="M78.132 72.6977L44 62.0591V106L78.132 99.7942V72.6977Z" fill="#DFAF07"/>
<path d="M53.6914 2.71107C51.0151 0.0349077 46.6762 0.0349077 44 2.71107L43.4593 2.75533L42.7113 2.00712C40.0351 -0.669039 35.696 -0.669039 33.0198 2.00712C30.3435 4.68328 30.3435 9.02239 33.0198 11.6985L43.4593 21.3602L53.4242 11.2296C56.1005 8.55323 56.3676 5.38722 53.6914 2.71107Z" fill="#FF6699"/>
<path d="M53.8987 2.00712C51.2225 -0.669039 46.8834 -0.669039 44.2072 2.00712L43.4592 2.75533V21.3602L53.8987 11.6985C56.5748 9.02218 56.5748 4.68328 53.8987 2.00712Z" fill="#E6455F"/>
<path d="M34.6913 77.5739L0.559235 71.3681L9.86797 55.8535L44 62.0593L34.6913 77.5739Z" fill="#F5E4A5"/>
<path d="M34.6913 34.1328L0.559235 40.3386L9.86797 55.8532L44 49.6474L34.6913 34.1328Z" fill="#F5E4A5"/>
<path d="M53.3087 34.1328L87.4408 40.3386L78.132 55.8532L44 49.6474L53.3087 34.1328Z" fill="#FCDB63"/>
<path d="M53.3087 77.5734L87.4408 71.3676L78.132 55.853L44 62.0589L53.3087 77.5734Z" fill="#FCDB63"/>
</svg>
