<svg width="92" height="88" viewBox="0 0 92 88" fill="none" xmlns="http://www.w3.org/2000/svg">
<path d="M16.1825 22.437L11.7773 6.26587H2.69531C1.20552 6.26587 0 5.06035 0 3.57056C0 2.08077 1.20552 0.875244 2.69531 0.875244H13.8356C15.0517 0.875244 16.1151 1.68851 16.4362 2.86259L22.3111 24.4251L16.1825 22.437Z" fill="#80334D"/>
<path d="M73.1325 70.9531H30.0075C28.5229 70.9531 27.3121 69.7449 27.3121 68.2578C27.3121 66.8654 28.3545 65.7126 29.7338 65.5756C31.213 65.4283 32.2976 64.1069 32.1448 62.625C32.0027 61.1458 30.6761 60.1165 29.1969 60.2112C25.0486 60.6245 21.9217 64.0831 21.9217 68.2577C21.9217 72.7164 25.5489 76.3436 30.0076 76.3436H73.1326C74.6224 76.3436 75.8279 75.1381 75.8279 73.6483C75.8279 72.1585 74.6222 70.9531 73.1325 70.9531Z" fill="#80334D"/>
<path d="M73.1324 70.9531H56.9606V76.3438H73.1324C74.6222 76.3438 75.8278 75.1382 75.8278 73.6484C75.8278 72.1586 74.6222 70.9531 73.1324 70.9531Z" fill="#59243F"/>
<path d="M30.0075 65.5099C28.8019 65.5099 27.728 64.707 27.4068 63.5252L16.1793 22.4375H89.3043C90.094 22.4375 90.8468 22.785 91.3626 23.3904C91.8733 23.9957 92.0943 24.7934 91.9628 25.575L86.5722 57.9188C86.3722 59.1216 85.3931 60.0376 84.1769 60.1588C22.4448 66.2665 30.6547 65.5099 30.0075 65.5099Z" fill="#F24973"/>
<path d="M89.3044 22.4375H56.9606V62.856C64.0386 62.1529 72.9368 61.2708 84.177 60.1588C85.3931 60.0377 86.3722 59.1218 86.5722 57.9188L91.9628 25.575C92.0944 24.7932 91.8734 23.9957 91.3627 23.3904C90.8468 22.785 90.0939 22.4375 89.3044 22.4375Z" fill="#D92C49"/>
<path d="M73.1324 87.125C68.6737 87.125 65.0465 83.4978 65.0465 79.0391C65.0465 74.5803 68.6737 70.9531 73.1324 70.9531C77.5912 70.9531 81.2184 74.5803 81.2184 79.0391C81.2184 83.4978 77.5912 87.125 73.1324 87.125Z" fill="#59243F"/>
<path d="M73.1324 81.7344C74.621 81.7344 75.8278 80.5276 75.8278 79.0391C75.8278 77.5505 74.621 76.3438 73.1324 76.3438C71.6439 76.3438 70.4371 77.5505 70.4371 79.0391C70.4371 80.5276 71.6439 81.7344 73.1324 81.7344Z" fill="#D9E5FF"/>
<path d="M35.3981 87.125C30.9393 87.125 27.3121 83.4978 27.3121 79.0391C27.3121 74.5803 30.9393 70.9531 35.3981 70.9531C39.8568 70.9531 43.484 74.5803 43.484 79.0391C43.484 83.4978 39.8568 87.125 35.3981 87.125Z" fill="#80334D"/>
<path d="M35.3981 81.7344C36.8867 81.7344 38.0934 80.5276 38.0934 79.0391C38.0934 77.5505 36.8867 76.3438 35.3981 76.3438C33.9095 76.3438 32.7028 77.5505 32.7028 79.0391C32.7028 80.5276 33.9095 81.7344 35.3981 81.7344Z" fill="#ECF2FF"/>
<path d="M73.1324 49.3906C71.6427 49.3906 70.4371 48.1851 70.4371 46.6953V35.9141C70.4371 34.4243 71.6427 33.2188 73.1324 33.2188C74.6222 33.2188 75.8278 34.4243 75.8278 35.9141V46.6953C75.8278 48.1851 74.6222 49.3906 73.1324 49.3906Z" fill="#D9E5FF"/>
<path d="M40.7887 49.3906C39.2989 49.3906 38.0934 48.1851 38.0934 46.6953V35.9141C38.0934 34.4243 39.2989 33.2188 40.7887 33.2188C42.2785 33.2188 43.484 34.4243 43.484 35.9141V46.6953C43.484 48.1851 42.2785 49.3906 40.7887 49.3906Z" fill="#ECF2FF"/>
<path d="M56.9606 49.3906C55.4708 49.3906 54.2653 48.1851 54.2653 46.6953V35.9141C54.2653 34.4243 55.4708 33.2188 56.9606 33.2188C58.4504 33.2188 59.6559 34.4243 59.6559 35.9141V46.6953C59.6559 48.1851 58.4504 49.3906 56.9606 49.3906Z" fill="#ECF2FF"/>
<path d="M59.6559 46.6953V35.9141C59.6559 34.4243 58.4504 33.2188 56.9606 33.2188V49.3906C58.4504 49.3906 59.6559 48.1851 59.6559 46.6953Z" fill="#D9E5FF"/>
</svg>
