<svg width="138" height="90" viewBox="0 0 138 90" fill="none" xmlns="http://www.w3.org/2000/svg">
<path d="M137.242 42.647C136.01 40.9255 106.374 0.527344 69.0001 0.527344C31.6264 0.527344 1.99006 40.9255 0.758301 42.647C-0.252441 44.0526 -0.252441 45.9477 0.758301 47.3533C1.99006 49.0745 31.6264 89.4727 69.0001 89.4727C106.374 89.4727 136.01 49.0745 137.242 47.353C138.253 45.9477 138.253 44.0523 137.242 42.647Z" fill="url(#paint0_linear)"/>
<path d="M69 16.6992C53.3941 16.6992 40.6992 29.3941 40.6992 45C40.6992 60.6059 53.3941 73.3008 69 73.3008C84.6059 73.3008 97.3008 60.6059 97.3008 45C97.3008 29.3941 84.6059 16.6992 69 16.6992ZM69 57.1289C62.2884 57.1289 56.8711 51.7111 56.8711 45C56.8711 38.2887 62.2884 32.8711 69 32.8711C75.7113 32.8711 81.1289 38.2887 81.1289 45C81.1289 51.7111 75.7113 57.1289 69 57.1289Z" fill="url(#paint1_linear)"/>
<defs>
<linearGradient id="paint0_linear" x1="69.0001" y1="89.4727" x2="69.0001" y2="0.527344" gradientUnits="userSpaceOnUse">
<stop stop-color="#57D8EB"/>
<stop offset="1" stop-color="#BEE1E6"/>
</linearGradient>
<linearGradient id="paint1_linear" x1="69" y1="73.3008" x2="69" y2="16.6992" gradientUnits="userSpaceOnUse">
<stop stop-color="#BEE1E6"/>
<stop offset="1" stop-color="#EEFDFF"/>
</linearGradient>
</defs>
</svg>
