<svg width="108" height="92" viewBox="0 0 108 92" fill="none" xmlns="http://www.w3.org/2000/svg">
<g clip-path="url(#clip0)">
<path d="M51.5833 29.8281H27.1747C25.8256 29.8281 24.7339 28.6226 24.7339 27.1328V16.3516C24.7339 14.8618 25.8256 13.6562 27.1747 13.6562H51.5833C52.9324 13.6562 54.0241 14.8618 54.0241 16.3516V27.1328C54.0241 28.6226 52.9324 29.8281 51.5833 29.8281Z" fill="#FFD580"/>
<path d="M67.9541 3.66484C67.0007 2.61205 65.456 2.61205 64.5026 3.66484L61.3465 7.14988L58.1905 3.66484C57.2371 2.61205 55.6924 2.61205 54.739 3.66484C53.7856 4.71763 53.7856 6.4234 54.739 7.47619L59.6207 12.8668C60.0975 13.3933 60.722 13.6565 61.3464 13.6565C61.9707 13.6565 62.5954 13.3933 63.0721 12.8668L67.9538 7.47619C68.9077 6.42322 68.9077 4.71763 67.9541 3.66484V3.66484Z" fill="#F24973"/>
<path d="M63.072 12.8666L67.9537 7.47594C68.9071 6.42315 68.9071 4.71738 67.9537 3.66459C67.0003 2.6118 65.4556 2.6118 64.5022 3.66459L61.3462 7.14963V13.6563C61.9709 13.6563 62.5954 13.3931 63.072 12.8666Z" fill="#D92C49"/>
<path d="M71.1098 29.8281H51.5829C50.2338 29.8281 49.1421 28.6226 49.1421 27.1328V10.9609C49.1421 9.47115 50.2338 8.26562 51.5829 8.26562H71.1098C72.4589 8.26562 73.5506 9.47115 73.5506 10.9609V27.1328C73.5506 28.6226 72.4589 29.8281 71.1098 29.8281Z" fill="#8AE68A"/>
<path d="M71.1101 8.26562H61.3467V29.8281H71.1101C72.4592 29.8281 73.551 28.6226 73.551 27.1328V10.9609C73.551 9.47115 72.4592 8.26562 71.1101 8.26562Z" fill="#60BF80"/>
<path d="M14.6547 24.437L10.6654 8.26587H2.44085C1.09171 8.26587 0 7.06035 0 5.57056C0 4.08077 1.09171 2.87524 2.44085 2.87524H12.5294C13.6307 2.87524 14.5937 3.68851 14.8845 4.86259L20.2047 26.4251L14.6547 24.437Z" fill="#80334D"/>
<path d="M66.2281 72.9532H27.1744C25.83 72.9532 24.7336 71.7449 24.7336 70.2578C24.7336 68.8654 25.6776 67.7126 26.9266 67.5756C28.2662 67.4283 29.2484 66.1069 29.11 64.625C28.9813 63.1458 27.7799 62.1165 26.4404 62.2112C22.6838 62.6245 19.8521 66.0831 19.8521 70.2577C19.8521 74.7164 23.1368 78.3436 27.1746 78.3436H66.2283C67.5774 78.3436 68.6691 77.1381 68.6691 75.6483C68.6691 74.1585 67.5773 72.9532 66.2281 72.9532V72.9532Z" fill="#80334D"/>
<path d="M66.2281 72.9531H51.583V78.3438H66.2281C67.5773 78.3438 68.669 77.1382 68.669 75.6484C68.669 74.1586 67.5773 72.9531 66.2281 72.9531Z" fill="#59243F"/>
<path d="M27.1746 67.5099C26.0829 67.5099 25.1103 66.707 24.8195 65.5252L14.6519 24.4375H80.8733C81.5885 24.4375 82.2702 24.785 82.7373 25.3904C83.1998 25.9957 83.4 26.7934 83.2808 27.575L78.3991 59.9188C78.218 61.1216 77.3313 62.0376 76.23 62.1588C20.3259 68.2665 27.7607 67.5099 27.1746 67.5099V67.5099Z" fill="#F24973"/>
<path d="M80.8733 24.4375H51.583V64.856C57.9929 64.1529 66.0509 63.2708 76.23 62.1588C77.3313 62.0377 78.218 61.1218 78.3991 59.9188L83.2808 27.575C83.3999 26.7932 83.1998 25.9957 82.7373 25.3904C82.2701 24.785 81.5883 24.4375 80.8733 24.4375V24.4375Z" fill="#D92C49"/>
<path d="M66.2283 89.125C62.1905 89.125 58.9058 85.4978 58.9058 81.0391C58.9058 76.5803 62.1905 72.9531 66.2283 72.9531C70.2662 72.9531 73.5509 76.5803 73.5509 81.0391C73.5509 85.4978 70.2662 89.125 66.2283 89.125Z" fill="#59243F"/>
<path d="M66.2285 83.7344C67.5765 83.7344 68.6693 82.5276 68.6693 81.0391C68.6693 79.5505 67.5765 78.3438 66.2285 78.3438C64.8804 78.3438 63.7876 79.5505 63.7876 81.0391C63.7876 82.5276 64.8804 83.7344 66.2285 83.7344Z" fill="#D9E5FF"/>
<path d="M32.0564 89.125C28.0186 89.125 24.7339 85.4978 24.7339 81.0391C24.7339 76.5803 28.0186 72.9531 32.0564 72.9531C36.0943 72.9531 39.379 76.5803 39.379 81.0391C39.379 85.4978 36.0943 89.125 32.0564 89.125Z" fill="#80334D"/>
<path d="M32.0566 83.7344C33.4046 83.7344 34.4974 82.5276 34.4974 81.0391C34.4974 79.5505 33.4046 78.3438 32.0566 78.3438C30.7085 78.3438 29.6157 79.5505 29.6157 81.0391C29.6157 82.5276 30.7085 83.7344 32.0566 83.7344Z" fill="#ECF2FF"/>
<path d="M66.2285 51.3906C64.8793 51.3906 63.7876 50.1851 63.7876 48.6953V37.9141C63.7876 36.4243 64.8793 35.2188 66.2285 35.2188C67.5776 35.2188 68.6693 36.4243 68.6693 37.9141V48.6953C68.6693 50.1851 67.5776 51.3906 66.2285 51.3906Z" fill="#D9E5FF"/>
<path d="M36.9379 51.3906C35.5888 51.3906 34.4971 50.1851 34.4971 48.6953V37.9141C34.4971 36.4243 35.5888 35.2188 36.9379 35.2188C38.2871 35.2188 39.3788 36.4243 39.3788 37.9141V48.6953C39.3788 50.1851 38.2871 51.3906 36.9379 51.3906Z" fill="#ECF2FF"/>
<path d="M51.5829 51.3906C50.2338 51.3906 49.1421 50.1851 49.1421 48.6953V37.9141C49.1421 36.4243 50.2338 35.2188 51.5829 35.2188C52.9321 35.2188 54.0238 36.4243 54.0238 37.9141V48.6953C54.0238 50.1851 52.9321 51.3906 51.5829 51.3906Z" fill="#ECF2FF"/>
<path d="M54.0239 48.6953V37.9141C54.0239 36.4243 52.9321 35.2188 51.583 35.2188V51.3906C52.9321 51.3906 54.0239 50.1851 54.0239 48.6953Z" fill="#D9E5FF"/>
</g>
<g filter="url(#filter0_i)">
<circle cx="86.5" cy="21.5" r="21.5" fill="#57D8EB"/>
</g>
<path d="M95.125 19.625H88.75C88.5429 19.625 88.375 19.4571 88.375 19.25V12.875C88.375 11.8395 87.5355 11 86.5 11C85.4645 11 84.625 11.8395 84.625 12.875V19.25C84.625 19.4571 84.4571 19.625 84.25 19.625H77.875C76.8395 19.625 76 20.4645 76 21.5C76 22.5355 76.8395 23.375 77.875 23.375H84.25C84.4571 23.375 84.625 23.5429 84.625 23.75V30.125C84.625 31.1605 85.4645 32 86.5 32C87.5355 32 88.375 31.1605 88.375 30.125V23.75C88.375 23.5429 88.5429 23.375 88.75 23.375H95.125C96.1605 23.375 97 22.5355 97 21.5C97 20.4645 96.1605 19.625 95.125 19.625Z" fill="white"/>
<defs>
<filter id="filter0_i" x="65" y="0" width="43" height="43" filterUnits="userSpaceOnUse" color-interpolation-filters="sRGB">
<feFlood flood-opacity="0" result="BackgroundImageFix"/>
<feBlend mode="normal" in="SourceGraphic" in2="BackgroundImageFix" result="shape"/>
<feColorMatrix in="SourceAlpha" type="matrix" values="0 0 0 0 0 0 0 0 0 0 0 0 0 0 0 0 0 0 127 0" result="hardAlpha"/>
<feMorphology radius="16" operator="erode" in="SourceAlpha" result="effect1_innerShadow"/>
<feOffset/>
<feGaussianBlur stdDeviation="13"/>
<feComposite in2="hardAlpha" operator="arithmetic" k2="-1" k3="1"/>
<feColorMatrix type="matrix" values="0 0 0 0 0 0 0 0 0 0.737247 0 0 0 0 0.845833 0 0 0 1 0"/>
<feBlend mode="normal" in2="shape" result="effect1_innerShadow"/>
</filter>
<clipPath id="clip0">
<rect width="83.3145" height="92" fill="white"/>
</clipPath>
</defs>
</svg>
