<svg width="92" height="87" viewBox="0 0 92 87" fill="none" xmlns="http://www.w3.org/2000/svg">
<path d="M56.9604 26.9531H30.0073C28.5175 26.9531 27.312 25.7476 27.312 24.2578V13.4766C27.312 11.9868 28.5175 10.7812 30.0073 10.7812H56.9604C58.4502 10.7812 59.6558 11.9868 59.6558 13.4766V24.2578C59.6558 25.7476 58.4502 26.9531 56.9604 26.9531Z" fill="#FFD580"/>
<path d="M75.0382 0.789836C73.9854 -0.262953 72.2796 -0.262953 71.2268 0.789836L67.7418 4.27488L64.2567 0.789836C63.2039 -0.262953 61.4981 -0.262953 60.4454 0.789836C59.3926 1.84263 59.3926 3.5484 60.4454 4.60119L65.836 9.99182C66.3625 10.5183 67.0521 10.7815 67.7416 10.7815C68.431 10.7815 69.1209 10.5183 69.6472 9.99182L75.0378 4.60119C76.0911 3.54822 76.0911 1.84263 75.0382 0.789836Z" fill="#F24973"/>
<path d="M69.6475 9.99157L75.0381 4.60094C76.0909 3.54815 76.0909 1.84238 75.0381 0.789592C73.9853 -0.263197 72.2795 -0.263197 71.2267 0.789592L67.7417 4.27463V10.7813C68.4315 10.7813 69.1212 10.5181 69.6475 9.99157Z" fill="#D92C49"/>
<path d="M78.523 26.9531H56.9604C55.4707 26.9531 54.2651 25.7476 54.2651 24.2578V8.08594C54.2651 6.59615 55.4707 5.39062 56.9604 5.39062H78.523C80.0127 5.39062 81.2183 6.59615 81.2183 8.08594V24.2578C81.2183 25.7476 80.0127 26.9531 78.523 26.9531Z" fill="#8AE68A"/>
<path d="M78.5229 5.39062H67.7417V26.9531H78.5229C80.0127 26.9531 81.2183 25.7476 81.2183 24.2578V8.08594C81.2183 6.59615 80.0127 5.39062 78.5229 5.39062Z" fill="#60BF80"/>
<path d="M16.1825 21.562L11.7773 5.39087H2.69531C1.20552 5.39087 0 4.18535 0 2.69556C0 1.20577 1.20552 0.000244141 2.69531 0.000244141H13.8356C15.0517 0.000244141 16.1151 0.81351 16.4362 1.98759L22.3111 23.5501L16.1825 21.562Z" fill="#80334D"/>
<path d="M73.1324 70.0783H30.0074C28.5228 70.0783 27.3121 68.8701 27.3121 67.383C27.3121 65.9906 28.3544 64.8377 29.7337 64.7008C31.2129 64.5534 32.2975 63.232 32.1448 61.7501C32.0026 60.2709 30.676 59.2417 29.1968 59.3364C25.0486 59.7496 21.9216 63.2083 21.9216 67.3828C21.9216 71.8415 25.5488 75.4687 30.0076 75.4687H73.1326C74.6224 75.4687 75.8279 74.2632 75.8279 72.7734C75.8279 71.2836 74.6222 70.0783 73.1324 70.0783Z" fill="#80334D"/>
<path d="M73.1323 70.0781H56.9604V75.4688H73.1323C74.6221 75.4688 75.8276 74.2632 75.8276 72.7734C75.8276 71.2836 74.6221 70.0781 73.1323 70.0781Z" fill="#59243F"/>
<path d="M30.0074 64.6349C28.8019 64.6349 27.7279 63.832 27.4068 62.6502L16.1792 21.5625H89.3043C90.094 21.5625 90.8467 21.91 91.3626 22.5154C91.8733 23.1207 92.0943 23.9184 91.9627 24.7L86.5721 57.0438C86.3721 58.2466 85.393 59.1626 84.1769 59.2838C22.4447 65.3915 30.6546 64.6349 30.0074 64.6349Z" fill="#F24973"/>
<path d="M89.3042 21.5625H56.9604V61.981C64.0385 61.2779 72.9367 60.3958 84.1768 59.2838C85.393 59.1627 86.3721 58.2468 86.5721 57.0438L91.9627 24.7C92.0942 23.9182 91.8732 23.1207 91.3626 22.5154C90.8467 21.91 90.0938 21.5625 89.3042 21.5625Z" fill="#D92C49"/>
<path d="M73.1323 86.25C68.6736 86.25 65.0464 82.6228 65.0464 78.1641C65.0464 73.7053 68.6736 70.0781 73.1323 70.0781C77.5911 70.0781 81.2183 73.7053 81.2183 78.1641C81.2183 82.6228 77.5911 86.25 73.1323 86.25Z" fill="#59243F"/>
<path d="M73.1323 80.8594C74.6209 80.8594 75.8276 79.6526 75.8276 78.1641C75.8276 76.6755 74.6209 75.4688 73.1323 75.4688C71.6437 75.4688 70.437 76.6755 70.437 78.1641C70.437 79.6526 71.6437 80.8594 73.1323 80.8594Z" fill="#D9E5FF"/>
<path d="M35.3979 86.25C30.9392 86.25 27.312 82.6228 27.312 78.1641C27.312 73.7053 30.9392 70.0781 35.3979 70.0781C39.8567 70.0781 43.4839 73.7053 43.4839 78.1641C43.4839 82.6228 39.8567 86.25 35.3979 86.25Z" fill="#80334D"/>
<path d="M35.3979 80.8594C36.8865 80.8594 38.0933 79.6526 38.0933 78.1641C38.0933 76.6755 36.8865 75.4688 35.3979 75.4688C33.9094 75.4688 32.7026 76.6755 32.7026 78.1641C32.7026 79.6526 33.9094 80.8594 35.3979 80.8594Z" fill="#ECF2FF"/>
<path d="M73.1323 48.5156C71.6425 48.5156 70.437 47.3101 70.437 45.8203V35.0391C70.437 33.5493 71.6425 32.3438 73.1323 32.3438C74.6221 32.3438 75.8276 33.5493 75.8276 35.0391V45.8203C75.8276 47.3101 74.6221 48.5156 73.1323 48.5156Z" fill="#D9E5FF"/>
<path d="M40.7886 48.5156C39.2988 48.5156 38.0933 47.3101 38.0933 45.8203V35.0391C38.0933 33.5493 39.2988 32.3438 40.7886 32.3438C42.2784 32.3438 43.4839 33.5493 43.4839 35.0391V45.8203C43.4839 47.3101 42.2784 48.5156 40.7886 48.5156Z" fill="#ECF2FF"/>
<path d="M56.9604 48.5156C55.4707 48.5156 54.2651 47.3101 54.2651 45.8203V35.0391C54.2651 33.5493 55.4707 32.3438 56.9604 32.3438C58.4502 32.3438 59.6558 33.5493 59.6558 35.0391V45.8203C59.6558 47.3101 58.4502 48.5156 56.9604 48.5156Z" fill="#ECF2FF"/>
<path d="M59.6558 45.8203V35.0391C59.6558 33.5493 58.4502 32.3438 56.9604 32.3438V48.5156C58.4502 48.5156 59.6558 47.3101 59.6558 45.8203Z" fill="#D9E5FF"/>
</svg>
