<svg width="120" height="120" viewBox="0 0 120 120" fill="none" xmlns="http://www.w3.org/2000/svg">
<g clip-path="url(#clip0_8_237)">
<path d="M102.6 17.245C91.2 6.225 76.2 0 60.225 0C14.375 0 -14.415 49.675 8.48 89.19L0 120L31.675 111.74C45.475 119.195 56.78 118.535 60.255 118.975C113.42 118.975 139.885 54.655 102.525 17.44L102.6 17.245Z" fill="#ECEFF1"/>
<path d="M60.335 108.755L60.305 108.75H60.225C44.315 108.75 34.15 101.215 33.15 100.78L14.4 105.655L19.425 87.4301L18.23 85.5551C13.28 77.6751 10.65 68.6001 10.65 59.2551C10.65 15.2901 64.375 -6.69492 95.465 24.3801C126.48 55.1301 104.705 108.755 60.335 108.755Z" fill="#4CAF50"/>
<path d="M87.535 71.5351L87.49 71.9101C85.985 71.1601 78.655 67.5751 77.29 67.0801C74.225 65.9451 75.09 66.9001 69.205 73.6401C68.33 74.6151 67.46 74.6901 65.975 74.0151C64.475 73.2651 59.66 71.6901 53.96 66.5901C49.52 62.6151 46.54 57.7401 45.66 56.2401C44.195 53.7101 47.26 53.3501 50.05 48.0701C50.55 47.0201 50.295 46.1951 49.925 45.4501C49.55 44.7001 46.565 37.3501 45.315 34.4201C44.115 31.5001 42.88 31.8701 41.955 31.8701C39.075 31.6201 36.97 31.6601 35.115 33.5901C27.045 42.4601 29.08 51.6101 35.985 61.3401C49.555 79.1001 56.785 82.3701 70.005 86.9101C73.575 88.0451 76.83 87.8851 79.405 87.5151C82.275 87.0601 88.24 83.9101 89.485 80.3851C90.76 76.8601 90.76 73.9351 90.385 73.2601C90.015 72.5851 89.035 72.2101 87.535 71.5351Z" fill="#FAFAFA"/>
</g>
<defs>
<clipPath id="clip0_8_237">
<rect width="120" height="120" fill="white"/>
</clipPath>
</defs>
</svg>
