<svg width="208" height="142" viewBox="0 0 208 142" fill="none" xmlns="http://www.w3.org/2000/svg">
<path d="M88.7556 31.1603V61.7074C88.7556 61.7074 62.6102 94.8046 14.6816 95.0549C12.4074 95.0634 10.0902 94.9988 7.72538 94.8562L6.61226 91.2918C2.26701 77.3367 0.0663524 62.8982 0.00135241 48.4596C-0.0677101 32.3945 2.50832 16.3248 7.72538 0.919443C10.0857 0.777255 12.3985 0.708191 14.6641 0.708191C62.6012 0.708191 88.7556 31.1603 88.7556 31.1603Z" fill="#FF8496"/>
<path d="M207.996 48.4591C207.875 64.1834 205.088 79.4763 200.263 94.8557C197.899 94.9979 195.581 95.0629 193.316 95.0543C145.392 94.8081 119.234 61.7069 119.234 61.7069V31.1597C119.234 31.1597 147.921 -2.23523 200.263 0.919305C205.726 17.5024 208.113 33.1877 207.996 48.4591Z" fill="#FF637B"/>
<path d="M103.996 61.707L84.0659 137.319C83.2781 140.307 80.1228 142.001 77.197 141.007L50.8732 132.062C47.5806 130.943 46.2237 127.021 48.1217 124.107L88.7556 61.707H103.996Z" fill="#FF8496"/>
<path d="M157.116 132.061L130.793 141.007C127.868 141.999 124.713 140.307 123.924 137.317L103.996 61.707H119.233L159.869 124.108C161.768 127.021 160.409 130.944 157.116 132.061Z" fill="#FF637B"/>
<path d="M88.7556 54.3551H36.9279C33.3533 54.3551 30.4551 51.4574 30.4551 47.8824C30.4551 44.3078 33.3529 41.4096 36.9279 41.4096H88.7556C92.3302 41.4096 95.2284 44.3074 95.2284 47.8824C95.2284 51.4569 92.3306 54.3551 88.7556 54.3551Z" fill="#FF3F5C"/>
<path d="M171.063 54.3551H119.235C115.661 54.3551 112.762 51.4574 112.762 47.8824C112.762 44.3078 115.66 41.4096 119.235 41.4096H171.063C174.638 41.4096 177.536 44.3074 177.536 47.8824C177.536 51.4569 174.638 54.3551 171.063 54.3551Z" fill="#FF193D"/>
<path d="M123.156 34.7978V58.0695C123.156 62.2465 119.769 65.6338 115.587 65.6338H92.4016C88.2245 65.6338 84.8328 62.2465 84.8328 58.0695V34.7978C84.8328 30.6208 88.2245 27.2335 92.4016 27.2335H115.587C119.768 27.2335 123.156 30.6208 123.156 34.7978Z" fill="#FF637B"/>
<path d="M123.156 34.7978V58.0695C123.156 62.2465 119.769 65.6338 115.587 65.6338H103.997V27.2335H115.587C119.768 27.2335 123.156 30.6208 123.156 34.7978Z" fill="#FF3F5C"/>
</svg>
